<?xml version="1.0" encoding="iso-8859-1"?>
<!-- Uploaded to: SVG Repo, www.svgrepo.com, Generator: SVG Repo Mixer Tools -->
<svg fill="#000000" height="800px" width="800px" version="1.1" id="Layer_1" xmlns="http://www.w3.org/2000/svg" xmlns:xlink="http://www.w3.org/1999/xlink" 
	 viewBox="0 0 512 512" xml:space="preserve">
<g>
	<g>
		<path d="M408.511,326.809h-47.138c-2.378-11.44-9.647-21.371-19.681-27.195c8.252-11.251,14.345-24.177,17.662-38.167h5.692
			c22.526,0,40.851-18.325,40.851-40.851s-18.326-40.851-40.851-40.851h-5.705c-0.734-3.103-1.609-6.172-2.624-9.205l1.851-27.062
			c24.31-8.615,41.774-31.827,41.774-59.052c0-34.539-28.099-62.638-62.638-62.638c-8.56,0-17.022,1.762-24.833,5.136
			C298.961,9.945,278.19,0,256,0s-42.961,9.945-56.869,26.924c-7.811-3.375-16.273-5.136-24.833-5.136
			c-34.539,0-62.638,28.099-62.638,62.638c0,27.225,17.464,50.437,41.774,59.052l1.851,27.062c-1.015,3.033-1.889,6.104-2.624,9.205
			h-5.705c-22.526,0-40.851,18.325-40.851,40.851s18.325,40.851,40.851,40.851h5.692c3.317,13.991,9.411,26.917,17.663,38.168
			c-10.034,5.824-17.303,15.754-19.682,27.194h-47.139c-28.531,0-51.745,23.213-51.745,51.745V503.83c0,4.513,3.657,8.17,8.17,8.17
			h392.17c4.513,0,8.17-3.657,8.17-8.17V378.553C460.255,350.022,437.042,326.809,408.511,326.809z M128,84.426
			c0-25.529,20.769-46.298,46.298-46.298c8.147,0,16.17,2.157,23.2,6.24c3.732,2.167,8.504,1.06,10.898-2.531
			C219.05,25.871,236.846,16.34,256,16.34s36.95,9.531,47.604,25.495c2.394,3.589,7.169,4.697,10.898,2.531
			c7.03-4.082,15.053-6.239,23.2-6.239c25.529,0,46.298,20.769,46.298,46.298s-20.769,46.298-46.298,46.298
			c-6.604,0-12.997-1.376-19.004-4.087c-4.118-1.858-8.953-0.026-10.809,4.085c-1.856,4.112-0.027,8.952,4.085,10.809
			c8.135,3.672,16.79,5.534,25.727,5.534c1.43,0,2.845-0.065,4.252-0.16l-1.129,16.501h-169.65l-1.129-16.501
			c1.406,0.095,2.821,0.16,4.252,0.16c14.373,0,27.992-4.803,39.047-13.654c12.406,8.848,27.302,13.654,42.654,13.654
			c10.423,0,20.516-2.155,29.997-6.403c4.117-1.844,5.96-6.679,4.115-10.797c-1.845-4.117-6.679-5.963-10.797-4.113
			c-7.365,3.3-15.21,4.973-23.315,4.973c-13.834,0-27.193-5.02-37.616-14.135c-3.25-2.84-8.147-2.666-11.186,0.402
			c-8.766,8.857-20.451,13.734-32.901,13.734C148.769,130.723,128,109.955,128,84.426z M313.191,495.66H133.447v-57.191
			c0-4.513-3.657-8.17-8.17-8.17c-4.513,0-8.17,3.657-8.17,8.17v57.191H68.085V378.553c0-19.522,15.882-35.404,35.404-35.404h54.468
			c4.513,0,8.17-3.657,8.17-8.17c0-9.948,6.169-18.876,15.156-22.629c19.204,19.028,45.61,30.799,74.716,30.799
			c21.041,0,40.672-6.151,57.191-16.747V495.66z M256.001,326.809c-49.555,0-89.872-40.317-89.872-89.872
			c0-4.513-3.657-8.17-8.17-8.17s-8.17,3.657-8.17,8.17c0,2.748,0.105,5.473,0.312,8.17h-3.145
			c-13.515,0-24.511-10.996-24.511-24.511c0-13.515,10.996-24.511,24.511-24.511h3.157c-0.207,2.71-0.326,5.434-0.326,8.17
			c0,4.513,3.657,8.17,8.17,8.17s8.17-3.657,8.17-8.17c0-8.346,1.158-16.564,3.409-24.511h172.927
			c2.251,7.946,3.409,16.163,3.409,24.511c0,4.513,3.657,8.17,8.17,8.17c4.513,0,8.17-3.657,8.17-8.17
			c0-2.736-0.119-5.46-0.326-8.17h3.157c13.515,0,24.511,10.996,24.511,24.511c0,13.515-10.994,24.511-24.508,24.511h-3.143
			c0.206-2.697,0.312-5.422,0.312-8.17c0-4.513-3.657-8.17-8.17-8.17s-8.17,3.657-8.17,8.17
			C345.873,286.491,305.556,326.809,256.001,326.809z M443.915,495.66H384v-57.191c0-4.513-3.657-8.17-8.17-8.17
			c-4.513,0-8.17,3.657-8.17,8.17v57.191h-38.128V313.505c0.398-0.382,0.792-0.768,1.184-1.157
			c8.986,3.753,15.156,12.68,15.156,22.629c0,4.513,3.657,8.17,8.17,8.17h54.468c19.522,0,35.404,15.882,35.404,35.404V495.66z"/>
	</g>
</g>
<g>
	<g>
		<path d="M227.132,196.085h-18.519c-4.513,0-8.17,3.657-8.17,8.17c0,4.513,3.657,8.17,8.17,8.17h10.814
			c1.121,3.173,4.148,5.447,7.705,5.447c4.513,0,8.17-3.657,8.17-8.17v-5.447C235.302,199.742,231.645,196.085,227.132,196.085z"/>
	</g>
</g>
<g>
	<g>
		<path d="M303.387,196.085h-18.519c-4.513,0-8.17,3.657-8.17,8.17v5.447c0,4.513,3.657,8.17,8.17,8.17
			c3.558,0,6.584-2.274,7.705-5.447h10.814c4.513,0,8.17-3.657,8.17-8.17C311.557,199.742,307.9,196.085,303.387,196.085z"/>
	</g>
</g>
<g>
	<g>
		<path d="M276.71,245.579c-4.249-1.515-8.923,0.709-10.434,4.961c-1.543,4.338-5.672,7.252-10.277,7.252s-8.734-2.914-10.277-7.252
			c-1.511-4.252-6.186-6.475-10.434-4.961c-4.251,1.51-6.472,6.182-4.96,10.435c3.852,10.837,14.169,18.118,25.672,18.118
			s21.82-7.281,25.672-18.118C283.184,251.762,280.963,247.09,276.71,245.579z"/>
	</g>
</g>
<g>
	<g>
		<circle cx="280.511" cy="462.979" r="8.17"/>
	</g>
</g>
<g>
	<g>
		<circle cx="280.511" cy="397.617" r="8.17"/>
	</g>
</g>
</svg>